<svg width="111" height="58" viewBox="0 0 111 58" fill="none" xmlns="http://www.w3.org/2000/svg">
<path d="M16.5509 6.3897C16.5509 6.3897 18.23 4.68496 14.7818 9.76928C15.8612 8.87204 17.6003 7.9449 19.6092 8.54306C21.0184 8.96177 28.8142 12.9395 33.9114 15.5714C36.7899 17.0668 40.178 17.2163 43.2064 16.02L53.7007 11.803L32.1424 1.15584C28.9641 -0.429268 25.2162 -0.369454 22.0679 1.24556L11.6335 6.65887L16.5509 6.3897Z" fill="url(#paint0_radial)"/>
<path d="M13.8835 50.2943C13.8835 50.2943 18.0512 51.7598 14.9929 47.7522C15.3827 48.1111 15.3827 48.7092 15.9524 49.0083C16.9718 49.5466 18.2311 49.8756 19.6703 49.4569C21.0796 49.0382 28.8753 45.0605 33.9726 42.4286C36.851 40.9332 40.2392 40.7837 43.2675 41.98L53.7618 46.197L32.2035 56.8441C29.0253 58.4292 25.2773 58.3694 22.129 56.7544L10.3154 50.5336L12.0245 47.9914L13.8835 50.2943Z" fill="url(#paint1_radial)"/>
<path d="M15.3517 45.2998V12.6405C15.3517 10.8759 15.9813 9.11138 16.7609 7.49636L19.3395 2.65131L6.2666 9.47027C2.69853 11.504 0.179902 15.2126 0.0299833 19.3398L0 38.5705C0.149919 42.6679 2.72852 46.3765 6.32656 48.4401L19.2495 55.2591L16.7909 50.414C16.0113 48.8289 15.3517 47.0942 15.3517 45.2998ZM1.85899 19.1006H3.95785V22.9886H1.85899V19.1006ZM1.85899 24.1849H3.95785V27.7738H1.85899V24.1849ZM1.85899 29.8674H3.95785V33.7554H1.85899V29.8674ZM1.85899 34.9517H3.95785V38.8397H1.85899V34.9517ZM2.27876 42.2791L1.85899 40.036H2.78848H3.71798C3.89788 41.8305 4.01782 42.6978 4.61749 43.924L4.91733 44.5222C4.94731 44.5222 2.60858 44.0137 2.27876 42.2791ZM4.64747 14.0163C4.0478 15.2425 3.89788 16.1098 3.74796 17.9043H2.81847H1.88897L2.30874 15.6612C2.60858 13.8966 4.97729 13.4181 4.97729 13.4181L4.64747 14.0163ZM12.2034 12.9097L12.6531 10.517C12.9829 8.63286 15.5016 8.12442 15.5016 8.12442L15.1718 8.7824C14.5421 10.0983 14.3922 11.0554 14.1823 12.9097V12.8499H13.1628H12.1434V12.9097H12.2034ZM12.3533 15.2126H14.1523V19.6987H12.3533V15.2126ZM12.3533 22.3904H14.1523V26.8766H12.3533V22.3904ZM12.3533 31.0637H14.1523V35.5498H12.3533V31.0637ZM12.3533 38.2415H14.1523V42.7277H12.3533V38.2415ZM12.6831 47.3036L12.2334 44.8212H13.2528H14.2722C14.4521 46.9148 14.6021 47.7821 15.2617 49.0682L15.5915 49.7261C15.5316 49.7261 13.0129 49.1878 12.6831 47.3036Z" fill="white"/>
<path d="M26.4136 16.2894V21.4037H29.1421V22.6598H24.9744V16.2894H26.4136Z" fill="white"/>
<path d="M34.6593 20.656H31.1512C31.3011 21.284 31.7808 21.6429 32.4105 21.6429C32.8902 21.6429 33.31 21.4635 33.6398 21.1345L34.3894 21.8822C33.9097 22.4205 33.1901 22.7495 32.2906 22.7495C30.7314 22.7495 29.7419 21.7625 29.7419 20.2672C29.7419 18.7718 30.7614 17.7549 32.2606 17.7549C33.9996 17.725 34.7792 18.8615 34.6593 20.656ZM33.37 19.8185C33.34 19.1606 32.9202 18.7419 32.2906 18.7419C31.6609 18.7419 31.2411 19.1606 31.1512 19.8185H33.37Z" fill="white"/>
<path d="M57.269 43.1765L58.4083 46.3467L59.5777 43.1765H60.5672L58.8881 47.3935H57.8986L56.2495 43.1765H57.269Z" fill="white"/>
<path d="M66.4431 43.1761V47.3931H65.4836V43.1761H66.4431Z" fill="white"/>
<path d="M74.4197 47.3631L73.76 46.1668H73.6701H72.8005V47.3631H71.8411V43.1461H73.6701C74.7795 43.1461 75.4091 43.6845 75.4091 44.6116C75.4091 45.2696 75.1393 45.7182 74.6295 45.9574L75.5291 47.3332H74.4197V47.3631ZM72.7706 45.3892H73.6401C74.1498 45.3892 74.4796 45.1499 74.4796 44.6714C74.4796 44.1929 74.1798 43.9536 73.6401 43.9536H72.7706V45.3892Z" fill="white"/>
<path d="M83.7759 43.1761V43.9836H82.4866V47.3931H81.5271V43.9836H80.2378V43.1761H83.7759Z" fill="white"/>
<path d="M90.5815 46.5855C91.1512 46.5855 91.511 46.2266 91.511 45.5986V43.1461H92.4705V45.5986C92.4705 46.7051 91.7509 47.393 90.5815 47.393C89.4122 47.393 88.6626 46.7051 88.6626 45.5986V43.1461H89.6221V45.5986C89.6221 46.2266 90.0119 46.5855 90.5815 46.5855Z" fill="white"/>
<path d="M100.987 43.176V43.9536H98.7378V44.8808H100.777V45.6584H98.7378V46.5855H101.077V47.3631H97.8083V43.1461H100.987V43.176Z" fill="white"/>
<path d="M107.222 43.1761V46.5557H109.021V47.3931H106.262V43.1761H107.222Z" fill="white"/>
<path d="M30.3431 27.4148C27.6746 27.4148 25.6057 29.4784 25.6057 32.1701C25.6057 34.8618 27.6746 36.9554 30.3431 36.9554C31.7524 36.9554 33.2815 36.2376 34.3909 35.131L36.4598 37.3741C34.8107 39.0489 32.442 40.1256 30.1932 40.1256C25.5457 40.1256 22.0676 36.6862 22.0676 32.2C22.0676 27.7438 25.6357 24.3642 30.3431 24.3642C32.5919 24.3642 34.9306 25.3512 36.4598 26.9363L34.4209 29.4186C33.3115 28.2223 31.7824 27.4148 30.3431 27.4148Z" fill="white"/>
<path d="M42.7555 28.0728V39.9761H39.3374V28.0728H42.7555ZM42.7256 24.6933C42.7256 25.6802 42.0359 26.398 41.0765 26.398C40.087 26.398 39.4273 25.6802 39.4273 24.6933C39.4273 23.7063 40.117 22.9885 41.0765 22.9885C42.0359 22.9885 42.7256 23.7063 42.7256 24.6933Z" fill="white"/>
<path d="M58.8261 32.4993V39.9762H55.408V33.4862C55.408 31.9909 54.5085 31.0637 53.0693 31.0637C51.3602 31.0936 50.3408 32.3797 50.3408 34.1143V39.9762H46.9226V28.0729H50.3408V30.1665C51.1803 28.6711 52.5895 27.9832 54.4785 27.9533C57.1171 27.9533 58.8261 29.7179 58.8261 32.4993Z" fill="white"/>
<path d="M73.6412 35.0714H65.0658C65.4556 36.5668 66.625 37.464 68.1542 37.464C69.2936 37.464 70.343 37.0154 71.1825 36.2079L72.9815 38.0323C71.7822 39.3482 70.0431 40.1258 67.8843 40.1258C64.0764 40.1258 61.6477 37.7033 61.6477 34.0845C61.6477 30.4058 64.1663 27.9833 67.7944 27.9833C71.9921 27.9833 73.941 30.7348 73.6412 35.0714ZM70.4629 33.0676C70.4329 31.4825 69.3835 30.4656 67.8243 30.4656C66.3252 30.4656 65.3057 31.4825 65.0359 33.0676H70.4629Z" fill="white"/>
<path d="M96.8767 32.4993V39.9762H93.4885V33.4862C93.4885 31.9609 92.589 31.0637 91.1798 31.0637C89.5307 31.0936 88.5412 32.3797 88.5412 34.0844V39.9762H85.1531V33.4862C85.1531 31.9609 84.2535 31.0637 82.8743 31.0637C81.2252 31.0936 80.2057 32.3797 80.2057 34.0844V39.9762H76.7876V28.0729H80.2057V30.1366C81.0453 28.6711 82.4545 27.9533 84.2535 27.9533C86.2624 27.9533 87.7017 28.9702 88.3013 30.7048C89.0809 28.8804 90.5801 27.9832 92.619 27.9533C95.2276 27.9533 96.8767 29.7179 96.8767 32.4993Z" fill="white"/>
<path d="M107.641 39.9762V38.5706C106.831 39.5575 105.542 40.1258 103.893 40.1258C101.344 40.1258 99.7852 38.5706 99.7852 36.4172C99.7852 34.1741 101.404 32.8582 104.343 32.8283H107.611V32.6189C107.611 31.3628 106.771 30.6151 105.122 30.6151C104.043 30.6151 102.814 30.974 101.584 31.6619L100.505 29.3291C102.274 28.4318 103.803 27.9533 105.902 27.9533C109.11 27.9533 110.939 29.5384 110.969 32.2301L110.999 40.0061H107.641V39.9762ZM107.611 35.9088V34.8321H104.942C103.623 34.8321 102.993 35.2209 102.993 36.1779C102.993 37.0752 103.713 37.6733 104.852 37.6733C106.292 37.7032 107.431 36.9256 107.611 35.9088Z" fill="white"/>
<path d="M71.9004 24.0917L67.959 27.6346L66.6233 26.8079L69.9078 23.0288L71.9004 24.0917Z" fill="white"/>
<defs>
<radialGradient id="paint0_radial" cx="0" cy="0" r="1" gradientUnits="userSpaceOnUse" gradientTransform="translate(53.7007) rotate(158.21) scale(45.3042 36.7094)">
<stop stop-color="#3E4145"/>
<stop offset="1" stop-color="#2C3644"/>
</radialGradient>
<radialGradient id="paint1_radial" cx="0" cy="0" r="1" gradientUnits="userSpaceOnUse" gradientTransform="translate(53.7618 41.1824) rotate(158.839) scale(46.5878 36.8685)">
<stop stop-color="#3E4145"/>
<stop offset="1" stop-color="#2C3644"/>
</radialGradient>
</defs>
</svg>
