<svg width="19" height="19" viewBox="0 0 19 19" fill="none" xmlns="http://www.w3.org/2000/svg">
<path d="M18.1975 9.42928C18.1982 8.80108 18.1448 8.17397 18.0376 7.55485H9.28345V11.1053H14.2974C14.1948 11.6723 13.9777 12.2129 13.659 12.6943C13.3404 13.1758 12.9269 13.5882 12.4434 13.9067V16.2113H15.4358C17.188 14.607 18.1975 12.2345 18.1975 9.42928Z" fill="#4285F4"/>
<path d="M9.28338 18.4378C11.7884 18.4378 13.8977 17.6209 15.4358 16.2125L12.4434 13.9079C11.6105 14.4687 10.5378 14.7888 9.28338 14.7888C6.86213 14.7888 4.80703 13.1679 4.07215 10.9836H0.989502V13.3586C1.76212 14.8854 2.94684 16.1689 4.41141 17.0658C5.87597 17.9627 7.56274 18.4377 9.28338 18.4378Z" fill="#34A853"/>
<path d="M4.07109 10.9834C3.68259 9.83884 3.68259 8.59935 4.07109 7.45478V5.07973H0.988448C0.338495 6.36412 0 7.78165 0 9.2191C0 10.6565 0.338495 12.0741 0.988448 13.3585L4.07109 10.9834Z" fill="#FBBC04"/>
<path d="M9.28338 3.6496C10.6072 3.62812 11.8863 4.12483 12.8443 5.03237L15.4938 2.40126C13.8138 0.834209 11.5881 -0.0261276 9.28338 0.00060482C7.56274 0.000682698 5.87597 0.475684 4.41141 1.37258C2.94684 2.26947 1.76212 3.55296 0.989502 5.07975L4.07215 7.45479C4.80703 5.27052 6.86213 3.6496 9.28338 3.6496Z" fill="#EA4335"/>
</svg>
