<svg width="102" height="17" viewBox="0 0 102 17" fill="none" xmlns="http://www.w3.org/2000/svg">
<path d="M6.26 16.24C5.15333 16.24 4.08 16.0933 3.04 15.8C2.01333 15.4933 1.18667 15.1 0.56 14.62L1.66 12.18C2.26 12.62 2.97333 12.9733 3.8 13.24C4.62667 13.5067 5.45333 13.64 6.28 13.64C7.2 13.64 7.88 13.5067 8.32 13.24C8.76 12.96 8.98 12.5933 8.98 12.14C8.98 11.8067 8.84667 11.5333 8.58 11.32C8.32667 11.0933 7.99333 10.9133 7.58 10.78C7.18 10.6467 6.63333 10.5 5.94 10.34C4.87333 10.0867 4 9.83333 3.32 9.58C2.64 9.32667 2.05333 8.92 1.56 8.36C1.08 7.8 0.84 7.05333 0.84 6.12C0.84 5.30667 1.06 4.57333 1.5 3.92C1.94 3.25333 2.6 2.72667 3.48 2.34C4.37333 1.95333 5.46 1.76 6.74 1.76C7.63333 1.76 8.50667 1.86667 9.36 2.08C10.2133 2.29333 10.96 2.6 11.6 3L10.6 5.46C9.30667 4.72667 8.01333 4.36 6.72 4.36C5.81333 4.36 5.14 4.50667 4.7 4.8C4.27333 5.09333 4.06 5.48 4.06 5.96C4.06 6.44 4.30667 6.8 4.8 7.04C5.30667 7.26667 6.07333 7.49333 7.1 7.72C8.16667 7.97333 9.04 8.22667 9.72 8.48C10.4 8.73333 10.98 9.13333 11.46 9.68C11.9533 10.2267 12.2 10.9667 12.2 11.9C12.2 12.7 11.9733 13.4333 11.52 14.1C11.08 14.7533 10.4133 15.2733 9.52 15.66C8.62667 16.0467 7.54 16.24 6.26 16.24ZM18.5339 5.08C20.2006 5.08 21.4806 5.48 22.3739 6.28C23.2672 7.06667 23.7139 8.26 23.7139 9.86V16H20.7939V14.66C20.2072 15.66 19.1139 16.16 17.5139 16.16C16.6872 16.16 15.9672 16.02 15.3539 15.74C14.7539 15.46 14.2939 15.0733 13.9739 14.58C13.6539 14.0867 13.4939 13.5267 13.4939 12.9C13.4939 11.9 13.8672 11.1133 14.6139 10.54C15.3739 9.96667 16.5406 9.68 18.1139 9.68H20.5939C20.5939 9 20.3872 8.48 19.9739 8.12C19.5606 7.74667 18.9406 7.56 18.1139 7.56C17.5406 7.56 16.9739 7.65333 16.4139 7.84C15.8672 8.01333 15.4006 8.25333 15.0139 8.56L13.8939 6.38C14.4806 5.96667 15.1806 5.64667 15.9939 5.42C16.8206 5.19333 17.6672 5.08 18.5339 5.08ZM18.2939 14.06C18.8272 14.06 19.3006 13.94 19.7139 13.7C20.1272 13.4467 20.4206 13.08 20.5939 12.6V11.5H18.4539C17.1739 11.5 16.5339 11.92 16.5339 12.76C16.5339 13.16 16.6872 13.48 16.9939 13.72C17.3139 13.9467 17.7472 14.06 18.2939 14.06ZM32.8977 5.08C33.8977 5.08 34.8043 5.31333 35.6177 5.78C36.4443 6.23333 37.091 6.88 37.5577 7.72C38.0243 8.54667 38.2577 9.51333 38.2577 10.62C38.2577 11.7267 38.0243 12.7 37.5577 13.54C37.091 14.3667 36.4443 15.0133 35.6177 15.48C34.8043 15.9333 33.8977 16.16 32.8977 16.16C31.4177 16.16 30.291 15.6933 29.5177 14.76V16H26.5377V1.16H29.6577V6.38C30.4443 5.51333 31.5243 5.08 32.8977 5.08ZM32.3577 13.6C33.1577 13.6 33.811 13.3333 34.3177 12.8C34.8377 12.2533 35.0977 11.5267 35.0977 10.62C35.0977 9.71333 34.8377 8.99333 34.3177 8.46C33.811 7.91333 33.1577 7.64 32.3577 7.64C31.5577 7.64 30.8977 7.91333 30.3777 8.46C29.871 8.99333 29.6177 9.71333 29.6177 10.62C29.6177 11.5267 29.871 12.2533 30.3777 12.8C30.8977 13.3333 31.5577 13.6 32.3577 13.6ZM40.3463 5.24H43.4663V16H40.3463V5.24ZM41.9063 3.74C41.3329 3.74 40.8663 3.57333 40.5063 3.24C40.1463 2.90667 39.9663 2.49333 39.9663 2C39.9663 1.50667 40.1463 1.09333 40.5063 0.76C40.8663 0.426666 41.3329 0.259999 41.9063 0.259999C42.4796 0.259999 42.9463 0.419999 43.3063 0.74C43.6663 1.06 43.8463 1.46 43.8463 1.94C43.8463 2.46 43.6663 2.89333 43.3063 3.24C42.9463 3.57333 42.4796 3.74 41.9063 3.74Z" fill="#BD4300"/>
<path d="M67.7419 2L63.1619 16H59.6819L56.6019 6.52L53.4219 16H49.9619L45.3619 2H48.7219L51.8819 11.84L55.1819 2H58.1819L61.3819 11.92L64.6419 2H67.7419ZM73.6498 16.16C72.5165 16.16 71.4965 15.9267 70.5898 15.46C69.6965 14.98 68.9965 14.32 68.4898 13.48C67.9832 12.64 67.7298 11.6867 67.7298 10.62C67.7298 9.55333 67.9832 8.6 68.4898 7.76C68.9965 6.92 69.6965 6.26667 70.5898 5.8C71.4965 5.32 72.5165 5.08 73.6498 5.08C74.7832 5.08 75.7965 5.32 76.6898 5.8C77.5832 6.26667 78.2832 6.92 78.7898 7.76C79.2965 8.6 79.5498 9.55333 79.5498 10.62C79.5498 11.6867 79.2965 12.64 78.7898 13.48C78.2832 14.32 77.5832 14.98 76.6898 15.46C75.7965 15.9267 74.7832 16.16 73.6498 16.16ZM73.6498 13.6C74.4498 13.6 75.1032 13.3333 75.6098 12.8C76.1298 12.2533 76.3898 11.5267 76.3898 10.62C76.3898 9.71333 76.1298 8.99333 75.6098 8.46C75.1032 7.91333 74.4498 7.64 73.6498 7.64C72.8498 7.64 72.1898 7.91333 71.6698 8.46C71.1498 8.99333 70.8898 9.71333 70.8898 10.62C70.8898 11.5267 71.1498 12.2533 71.6698 12.8C72.1898 13.3333 72.8498 13.6 73.6498 13.6ZM84.6153 6.66C84.9886 6.14 85.4886 5.74667 86.1153 5.48C86.7553 5.21333 87.4886 5.08 88.3153 5.08V7.96C87.9686 7.93333 87.7353 7.92 87.6153 7.92C86.722 7.92 86.022 8.17333 85.5153 8.68C85.0086 9.17333 84.7553 9.92 84.7553 10.92V16H81.6353V5.24H84.6153V6.66ZM94.7905 11.78L93.2905 13.26V16H90.1705V1.16H93.2905V9.56L97.8505 5.24H101.57L97.0905 9.8L101.97 16H98.1905L94.7905 11.78Z" fill="black"/>
</svg>
