<svg width="38" height="38" viewBox="0 0 38 38" fill="none" xmlns="http://www.w3.org/2000/svg">
<circle cx="19" cy="19" r="19" fill="#D2EAFF" fill-opacity="0.35"/>
<g clip-path="url(#clip0_785_1624)">
<path d="M21.3245 14.7385C20.8968 14.7385 20.5497 14.3914 20.5497 13.9636V12.8014H17.4504V13.9636C17.4504 14.3914 17.1033 14.7385 16.6756 14.7385C16.2479 14.7385 15.9008 14.3914 15.9008 13.9636V12.8014C15.9008 11.9468 16.5958 11.2518 17.4504 11.2518H20.5497C21.4043 11.2518 22.0993 11.9468 22.0993 12.8014V13.9636C22.0993 14.3914 21.7522 14.7385 21.3245 14.7385Z" fill="#4B99E1"/>
<path d="M19.5501 21.6189C19.4107 21.6731 19.2092 21.7119 19 21.7119C18.7908 21.7119 18.5894 21.6731 18.4034 21.6034L9.70215 18.7056V24.6175C9.70215 25.7952 10.6552 26.7482 11.8329 26.7482H26.1671C27.3449 26.7482 28.2979 25.7952 28.2979 24.6175V18.7056L19.5501 21.6189Z" fill="#4B99E1"/>
<path d="M28.2979 15.707V17.4813L19.186 20.5186C19.124 20.5419 19.062 20.5496 19 20.5496C18.938 20.5496 18.876 20.5419 18.8141 20.5186L9.70215 17.4813V15.707C9.70215 14.5293 10.6552 13.5762 11.8329 13.5762H26.1671C27.3449 13.5762 28.2979 14.5293 28.2979 15.707Z" fill="#4B99E1"/>
</g>
<defs>
<clipPath id="clip0_785_1624">
<rect width="18.5957" height="18.5957" fill="white" transform="translate(9.70215 9.70215)"/>
</clipPath>
</defs>
</svg>
