<svg width="12" height="10" viewBox="0 0 12 10" fill="none" xmlns="http://www.w3.org/2000/svg">
<path d="M10.8889 1.53846H9L8.55 0.291209C8.51891 0.205863 8.46194 0.13209 8.38686 0.0799692C8.31179 0.0278481 8.22228 -8.003e-05 8.13056 1.72257e-07H3.86944C3.68194 1.72257e-07 3.51389 0.116758 3.45139 0.291209L3 1.53846H1.11111C0.497222 1.53846 0 2.03022 0 2.63736V8.9011C0 9.50824 0.497222 10 1.11111 10H10.8889C11.5028 10 12 9.50824 12 8.9011V2.63736C12 2.03022 11.5028 1.53846 10.8889 1.53846ZM6 7.8022C4.77222 7.8022 3.77778 6.81868 3.77778 5.6044C3.77778 4.39011 4.77222 3.40659 6 3.40659C7.22778 3.40659 8.22222 4.39011 8.22222 5.6044C8.22222 6.81868 7.22778 7.8022 6 7.8022ZM4.66667 5.6044C4.66667 5.95413 4.80714 6.28954 5.05719 6.53684C5.30724 6.78414 5.64638 6.92308 6 6.92308C6.35362 6.92308 6.69276 6.78414 6.94281 6.53684C7.19286 6.28954 7.33333 5.95413 7.33333 5.6044C7.33333 5.25466 7.19286 4.91925 6.94281 4.67195C6.69276 4.42465 6.35362 4.28571 6 4.28571C5.64638 4.28571 5.30724 4.42465 5.05719 4.67195C4.80714 4.91925 4.66667 5.25466 4.66667 5.6044Z" fill="white"/>
</svg>
