<svg width="38" height="38" viewBox="0 0 38 38" fill="none" xmlns="http://www.w3.org/2000/svg">
<circle cx="19" cy="19" r="19" fill="#209B25" fill-opacity="0.1"/>
<g clip-path="url(#clip0_785_1488)">
<path fill-rule="evenodd" clip-rule="evenodd" d="M18.024 21.0622V19.0533C18.024 17.9854 17.317 17.766 16.4152 17.2363H10.6957C9.79385 17.7661 9.08691 17.9854 9.08691 19.0534V21.0622C9.08691 21.3091 9.20277 21.2784 9.39548 21.2784H9.9909H12.8415H13.5549H14.2672H17.1199H17.7154C17.9081 21.2783 18.024 21.3091 18.024 21.0622Z" fill="#209B25"/>
<path d="M17.1373 26.2202H13.8416V24.2877L14.0233 24.4656C14.0793 24.5204 14.1527 24.5478 14.2261 24.5478C14.2995 24.5478 14.3728 24.5204 14.4288 24.4656C14.5408 24.3561 14.5408 24.1785 14.4289 24.0689L13.7577 23.412C13.7576 23.4119 13.7575 23.4118 13.7574 23.4117C13.7532 23.4076 13.7495 23.4044 13.746 23.4016C13.6953 23.3571 13.6284 23.3298 13.5549 23.3298C13.481 23.3298 13.4138 23.3574 13.363 23.4023C13.3597 23.405 13.3562 23.4081 13.3522 23.4119C13.3521 23.412 13.352 23.412 13.352 23.4121L12.6818 24.069C12.57 24.1787 12.5701 24.3563 12.6822 24.4657C12.7382 24.5204 12.8115 24.5477 12.8848 24.5477C12.9582 24.5477 13.0317 24.5203 13.0877 24.4654L13.2682 24.2885V26.5007C13.2682 26.6556 13.3966 26.7812 13.5549 26.7812H17.1373C17.2956 26.7812 17.424 26.6556 17.424 26.5007C17.424 26.3458 17.2956 26.2202 17.1373 26.2202Z" fill="#209B25"/>
<path d="M24.3825 14.4325C24.2705 14.323 24.089 14.3231 23.977 14.4326L23.7952 14.6105V12.3975C23.7952 12.2426 23.6669 12.117 23.5085 12.117H19.9272C19.7689 12.117 19.6405 12.2426 19.6405 12.3975C19.6405 12.5524 19.7689 12.678 19.9272 12.678H23.2218V14.6105L23.0401 14.4326C22.9281 14.323 22.7466 14.323 22.6346 14.4325C22.5226 14.542 22.5226 14.7197 22.6345 14.8292L23.3057 15.4861C23.3617 15.5409 23.4351 15.5683 23.5085 15.5683C23.5819 15.5683 23.6553 15.5409 23.7113 15.4861L24.3825 14.8292C24.4945 14.7197 24.4945 14.5421 24.3825 14.4325Z" fill="#209B25"/>
<path fill-rule="evenodd" clip-rule="evenodd" d="M14.8204 20.3258L14.0874 18.7715L13.5548 18.477L13.02 18.7715L12.2881 20.3258C12.2816 20.3407 12.2762 20.3418 12.286 20.3545L12.8413 21.2784H13.5548H14.2671L14.8214 20.3545C14.8323 20.3418 14.8268 20.3407 14.8204 20.3258Z" fill="#209B25"/>
<path fill-rule="evenodd" clip-rule="evenodd" d="M14.0876 18.7716L14.3149 17.8975L14.4318 17.4652L13.5549 17.1092L13.1424 17.2978L12.6866 17.5054L12.7927 17.8996L13.0201 18.7716H13.5538H14.0876Z" fill="#209B25"/>
<path fill-rule="evenodd" clip-rule="evenodd" d="M12.7927 17.8995L13.5549 17.1091L13.0309 16.6133L12.0035 16.4681L10.6957 17.2363L12.0598 18.0998C12.312 18.245 12.3705 18.3795 12.5599 18.1411L12.7927 17.8995Z" fill="#209B25"/>
<path fill-rule="evenodd" clip-rule="evenodd" d="M15.051 18.0998L16.4151 17.2363L15.1073 16.4681L14.3148 16.519L13.5548 17.1091L14.3148 17.8974L14.5508 18.1411C14.7403 18.3795 14.7977 18.2449 15.051 18.0998Z" fill="#209B25"/>
<path fill-rule="evenodd" clip-rule="evenodd" d="M15.1074 16.4681C15.6595 16.0189 16.0731 15.398 16.2095 14.8132C16.2409 14.6786 16.2582 14.5451 16.2582 14.4169V12.8552V12.6624H15.7613C14.709 12.6624 14.4892 11.3931 13.203 11.3931H12.5773C11.5921 11.3931 12.3423 12.8552 11.2088 12.8552H10.8527V14.4169C10.8527 14.5451 10.87 14.6786 10.9014 14.8132C11.0367 15.398 11.4513 16.0189 12.0035 16.4681C12.2688 16.6842 12.5654 16.8612 12.8782 16.9746C13.124 17.0646 13.3394 17.1091 13.5549 17.1091C13.7714 17.1091 13.9858 17.0646 14.2326 16.9746C14.5455 16.8612 14.8421 16.6843 15.1074 16.4681Z" fill="#209B25"/>
<path fill-rule="evenodd" clip-rule="evenodd" d="M16.2581 12.1538C16.2581 10.9173 14.9611 10.0761 13.7616 9.95636H13.1921C12.7309 10.0062 12.3228 10.1852 12.063 10.5147C10.7573 10.6281 10.8526 12.3286 10.8526 12.5522V12.9855V13.6032H11.2088C12.3423 13.6032 11.5921 12.1411 12.5772 12.1411H13.203C14.4891 12.1411 14.7078 13.4093 15.7612 13.4093H16.2582V13.0247V12.1538H16.2581Z" fill="#209B25"/>
<path fill-rule="evenodd" clip-rule="evenodd" d="M16.2582 12.6624V12.1538C16.2582 10.9173 14.9612 10.0761 13.7617 9.95636H13.1954C14.3647 10.1121 15.587 10.9407 15.587 12.1411V12.6497V12.8435V13.013V13.3976C15.6422 13.405 15.7006 13.4093 15.7613 13.4093H16.2582V13.0247V12.8552V12.6624Z" fill="#209B25"/>
<path fill-rule="evenodd" clip-rule="evenodd" d="M16.2582 14.4169V13.6032V13.4093H15.7613C15.7006 13.4093 15.6422 13.4051 15.5869 13.3976V14.4031C15.5869 14.5313 15.5707 14.6648 15.5393 14.7994C15.4029 15.3842 14.9883 16.004 14.4372 16.4543C14.4112 16.4755 14.3841 16.4957 14.3581 16.5168C14.2575 16.5931 14.1535 16.6652 14.0453 16.7287C13.8905 16.8219 13.7281 16.9004 13.5613 16.9608C13.5213 16.9756 13.4812 16.9894 13.4412 17.0021C13.3535 17.0296 13.269 17.0519 13.1857 17.0667C13.3123 17.0953 13.4336 17.1091 13.5548 17.1091C13.7714 17.1091 13.9857 17.0646 14.2326 16.9745C14.5454 16.8612 14.8421 16.6842 15.1073 16.4681C15.6595 16.0188 16.073 15.398 16.2094 14.8131C16.2409 14.6786 16.2582 14.5451 16.2582 14.4169Z" fill="#209B25"/>
<path fill-rule="evenodd" clip-rule="evenodd" d="M15.587 13.3976C14.6798 13.2684 14.4157 12.1411 13.2031 12.1411H12.5774C12.2136 12.1411 12.0859 12.3402 12.0133 12.5924H12.73C13.9426 12.5924 14.2067 13.7187 15.114 13.849C15.6152 13.8426 15.5871 13.7854 15.5871 14.4031C15.5871 14.5313 15.5708 14.6648 15.5394 14.7994C15.403 15.3842 14.9884 16.004 14.4373 16.4543C14.4114 16.4755 14.3843 16.4957 14.3583 16.5168C14.2576 16.5931 14.1537 16.6652 14.0454 16.7287C13.8906 16.822 13.7282 16.9004 13.5615 16.9608C13.5214 16.9756 13.4814 16.9894 13.4413 17.0021C13.3536 17.0296 13.2692 17.0519 13.1858 17.0667C13.3125 17.0953 13.4337 17.1091 13.555 17.1091C13.7715 17.1091 13.9859 17.0646 14.2327 16.9745C14.5456 16.8612 14.8422 16.6842 15.1074 16.4681C15.6596 16.0188 16.0731 15.398 16.2096 14.8131C16.241 14.6786 16.2583 14.5451 16.2583 14.4169V13.6032V13.4093H15.7614C15.7008 13.4093 15.6423 13.4051 15.587 13.3976Z" fill="#209B25"/>
<path fill-rule="evenodd" clip-rule="evenodd" d="M12.9367 17.7502L13.5549 17.1091C13.4337 17.1091 13.3124 17.0954 13.1857 17.0668C13.0872 17.0445 12.9865 17.0138 12.8783 16.9746C12.5654 16.8612 12.2688 16.6843 12.0035 16.4681L11.3756 16.8369C11.4492 16.9057 11.5261 16.9735 11.6041 17.0371C11.9375 17.3083 12.311 17.5308 12.7051 17.6749C12.7149 17.6781 12.7257 17.6823 12.7354 17.6855C12.8047 17.7099 12.8718 17.7321 12.9367 17.7502Z" fill="#209B25"/>
<path fill-rule="evenodd" clip-rule="evenodd" d="M14.4058 17.6749C14.7999 17.5308 15.1723 17.3083 15.5058 17.0371C15.5849 16.9735 15.6617 16.9057 15.7353 16.8369L15.1074 16.4681C14.8421 16.6843 14.5455 16.8612 14.2327 16.9746C13.9858 17.0647 13.7715 17.1091 13.5549 17.1091L14.1742 17.7502C14.238 17.7321 14.3041 17.711 14.3723 17.6866C14.3831 17.6823 14.395 17.6781 14.4058 17.6749Z" fill="#209B25"/>
<path fill-rule="evenodd" clip-rule="evenodd" d="M14.1741 17.7502L13.5549 17.1092L13.2268 17.4493L13.5776 17.9038L13.6858 18.0373C13.7194 18.0776 13.7107 18.084 13.6977 18.1348L13.5927 18.5353L13.5548 18.7716H14.0875L14.3149 17.8975L14.1741 17.7502Z" fill="#209B25"/>
<path fill-rule="evenodd" clip-rule="evenodd" d="M14.8204 20.3258L14.0874 18.7715H13.5548L14.1091 20.3258C14.1156 20.3407 14.1199 20.3418 14.1102 20.3545L13.5548 21.2783H14.2672L14.8215 20.3544C14.8323 20.3418 14.8269 20.3407 14.8204 20.3258Z" fill="#209B25"/>
<path fill-rule="evenodd" clip-rule="evenodd" d="M18.024 19.0534C18.024 17.9854 17.317 17.7661 16.4152 17.2363L15.5751 17.7682C16.3546 18.2047 16.9338 18.476 16.9338 19.4423V21.2784H17.12H17.7154C17.9081 21.2784 18.024 21.3091 18.024 21.0623V19.0534H18.024Z" fill="#209B25"/>
<path fill-rule="evenodd" clip-rule="evenodd" d="M28.0869 27.8262V25.8173C28.0869 24.7504 27.38 24.53 26.4782 24.0002H20.7576C19.8557 24.53 19.1488 24.7504 19.1488 25.8173V27.8262C19.1488 28.0741 19.2647 28.0423 19.4584 28.0423H20.0539H22.9033H23.6179H24.3292H27.1819H27.7773C27.9711 28.0423 28.0869 28.0741 28.0869 27.8262Z" fill="#209B25"/>
<path fill-rule="evenodd" clip-rule="evenodd" d="M24.8824 27.0898L24.1505 25.5355L23.6179 25.241L23.0831 25.5355L22.3501 27.0898C22.3436 27.1046 22.3382 27.1057 22.348 27.1195L22.9034 28.0424H23.6179H24.3292L24.8845 27.1195C24.8942 27.1057 24.8889 27.1046 24.8824 27.0898Z" fill="#209B25"/>
<path fill-rule="evenodd" clip-rule="evenodd" d="M24.1505 25.5355L24.3779 24.6613L24.4948 24.2291L23.6179 23.8741L23.2054 24.0617L22.7496 24.2693L22.8557 24.6645L23.0831 25.5355H23.6168H24.1505Z" fill="#209B25"/>
<path fill-rule="evenodd" clip-rule="evenodd" d="M22.8557 24.6646L23.6178 23.8742L23.0939 23.3783L22.0654 23.2321L20.7576 24.0003L22.1217 24.8648C22.375 25.0089 22.4324 25.1435 22.6229 24.9051L22.8557 24.6646Z" fill="#209B25"/>
<path fill-rule="evenodd" clip-rule="evenodd" d="M25.114 24.8648L26.4781 24.0003L25.1703 23.2321L24.3778 23.284L23.6178 23.8742L24.3778 24.6614L24.6127 24.9051C24.8033 25.1435 24.8606 25.009 25.114 24.8648Z" fill="#209B25"/>
<path fill-rule="evenodd" clip-rule="evenodd" d="M25.1703 23.2321C25.7214 22.7828 26.136 22.163 26.2724 21.5782C26.3038 21.4426 26.3201 21.3101 26.3201 21.1809V19.6202V19.4263H25.8231C24.7708 19.4263 24.5511 18.1581 23.266 18.1581H22.6392C21.6551 18.1581 22.4042 19.6202 21.2718 19.6202H20.9156V21.1809C20.9156 21.3101 20.9319 21.4426 20.9633 21.5782C21.0997 22.163 21.5143 22.7828 22.0654 23.2321C22.3307 23.4482 22.6284 23.6252 22.9413 23.7396C23.187 23.8296 23.4025 23.8741 23.6179 23.8741C23.8334 23.8741 24.0488 23.8296 24.2946 23.7396C24.6073 23.6252 24.9051 23.4482 25.1703 23.2321Z" fill="#209B25"/>
<path fill-rule="evenodd" clip-rule="evenodd" d="M26.3201 18.9178C26.3201 17.6813 25.0242 16.84 23.8246 16.7203H23.2552C22.794 16.7701 22.3858 16.9492 22.1249 17.2798C20.8193 17.3921 20.9157 19.0926 20.9157 19.3172V19.7505V20.3672H21.2718C22.4043 20.3672 21.6551 18.9051 22.6392 18.9051H23.266C24.5522 18.9051 24.7709 20.1744 25.8232 20.1744H26.3201V19.7898V18.9178Z" fill="#209B25"/>
<path fill-rule="evenodd" clip-rule="evenodd" d="M26.3201 19.4263V18.9178C26.3201 17.6813 25.0242 16.84 23.8246 16.7203H23.2573C24.4266 16.8771 25.6499 17.7046 25.6499 18.9061V19.4147V19.6075V19.777V20.1616C25.7051 20.1701 25.7625 20.1743 25.8231 20.1743H26.3201V19.7897V19.6202V19.4263Z" fill="#209B25"/>
<path fill-rule="evenodd" clip-rule="evenodd" d="M26.3201 21.1809V20.3672V20.1743H25.8232C25.7625 20.1743 25.7051 20.1701 25.6499 20.1616V21.1671C25.6499 21.2964 25.6337 21.4288 25.6023 21.5644C25.4659 22.1493 25.0512 22.7691 24.4991 23.2183C24.4731 23.2395 24.4471 23.2607 24.4201 23.2808C24.3205 23.3582 24.2154 23.4291 24.1083 23.4938C23.9524 23.586 23.791 23.6644 23.6243 23.7258C23.5832 23.7406 23.5431 23.7544 23.5042 23.7661C23.4165 23.7947 23.3309 23.8159 23.2487 23.8318C23.3753 23.8593 23.4966 23.8742 23.6178 23.8742C23.8333 23.8742 24.0487 23.8297 24.2945 23.7396C24.6073 23.6252 24.9051 23.4483 25.1703 23.2321C25.7214 22.7829 26.136 22.1631 26.2724 21.5782C26.3039 21.4425 26.3201 21.3101 26.3201 21.1809Z" fill="#209B25"/>
<path fill-rule="evenodd" clip-rule="evenodd" d="M25.6499 20.1616C24.7427 20.0324 24.4774 18.905 23.266 18.905H22.6391C22.2754 18.905 22.1487 19.1053 22.0762 19.3564H22.7929C24.0043 19.3564 24.2685 20.4837 25.1768 20.613C25.6586 20.613 25.6499 20.5653 25.6499 20.9329V21.1671C25.6499 21.2964 25.6337 21.4288 25.6023 21.5644C25.4659 22.1493 25.0512 22.769 24.4991 23.2183C24.4731 23.2395 24.4471 23.2607 24.42 23.2808C24.3204 23.3582 24.2154 23.4291 24.1082 23.4938C23.9523 23.586 23.791 23.6644 23.6243 23.7258C23.5831 23.7406 23.5431 23.7544 23.5041 23.7661C23.4165 23.7947 23.3309 23.8159 23.2486 23.8318C23.3753 23.8593 23.4966 23.8742 23.6178 23.8742C23.8333 23.8742 24.0487 23.8297 24.2945 23.7396C24.6073 23.6252 24.9051 23.4483 25.1703 23.2321C25.7214 22.7829 26.136 22.1631 26.2724 21.5782C26.3038 21.4426 26.3201 21.3102 26.3201 21.1809V20.3672V20.1744H25.8231C25.7625 20.1743 25.7051 20.1701 25.6499 20.1616Z" fill="#209B25"/>
<path fill-rule="evenodd" clip-rule="evenodd" d="M22.9997 24.5152L23.6179 23.8742C23.4967 23.8742 23.3754 23.8594 23.2487 23.8318C23.1502 23.8095 23.0485 23.7788 22.9413 23.7396C22.6284 23.6252 22.3307 23.4483 22.0654 23.2321L21.4375 23.6008C21.5122 23.6707 21.588 23.7375 21.667 23.8022C22.0005 24.0734 22.374 24.2959 22.767 24.4389C22.7778 24.4432 22.7875 24.4463 22.7984 24.4495C22.8666 24.4749 22.9337 24.4961 22.9997 24.5152Z" fill="#209B25"/>
<path fill-rule="evenodd" clip-rule="evenodd" d="M24.4688 24.4389C24.8617 24.2959 25.2352 24.0734 25.5687 23.8022C25.6478 23.7375 25.7235 23.6708 25.7982 23.6008L25.1703 23.2321C24.905 23.4483 24.6074 23.6252 24.2944 23.7396C24.0487 23.8297 23.8333 23.8742 23.6178 23.8742L24.236 24.5152C24.3009 24.4961 24.367 24.4749 24.4352 24.4516C24.446 24.4474 24.4568 24.4432 24.4688 24.4389Z" fill="#209B25"/>
<path fill-rule="evenodd" clip-rule="evenodd" d="M24.236 24.5152L23.6178 23.8741L23.2898 24.2142L23.6406 24.6677L23.7488 24.8023C23.7813 24.8426 23.7737 24.8489 23.7607 24.8987L23.6557 25.3003L23.6178 25.5355H24.1504L24.3778 24.6614L24.236 24.5152Z" fill="#209B25"/>
<path fill-rule="evenodd" clip-rule="evenodd" d="M24.8824 27.0898L24.1506 25.5355H23.6179L24.1711 27.0898C24.1776 27.1046 24.1831 27.1057 24.1733 27.1194L23.6179 28.0423H24.3292L24.8846 27.1194C24.8943 27.1057 24.8889 27.1046 24.8824 27.0898Z" fill="#209B25"/>
<path fill-rule="evenodd" clip-rule="evenodd" d="M28.087 25.8173C28.087 24.7504 27.38 24.53 26.4782 24.0002L25.6381 24.5332C26.4165 24.9686 26.9968 25.2399 26.9968 26.2072V28.0423H27.1819H27.7774C27.9711 28.0423 28.087 28.0741 28.087 27.8262V25.8173H28.087Z" fill="#209B25"/>
</g>
<defs>
<clipPath id="clip0_785_1488">
<rect width="19" height="18.5957" fill="white" transform="translate(9.08691 9.70215)"/>
</clipPath>
</defs>
</svg>
