<svg width="20" height="21" viewBox="0 0 20 21" fill="none" xmlns="http://www.w3.org/2000/svg">
<path d="M19.4603 8.7901C19.4598 8.78964 19.4593 8.78918 19.4589 8.78873L11.3005 0.630615C10.9527 0.282715 10.4904 0.0910645 9.99858 0.0910645C9.50679 0.0910645 9.04445 0.282562 8.69655 0.630463L0.542409 8.78445C0.539663 8.7872 0.536916 8.7901 0.53417 8.79285C-0.179942 9.51108 -0.178721 10.6764 0.537679 11.3928C0.86498 11.7202 1.29726 11.9099 1.75945 11.9297C1.77822 11.9316 1.79714 11.9325 1.81621 11.9325H2.14138V17.9364C2.14138 19.1244 3.10802 20.0911 4.29638 20.0911H7.48821C7.8117 20.0911 8.07415 19.8288 8.07415 19.5051V14.7981C8.07415 14.256 8.51513 13.815 9.05727 13.815H10.9399C11.482 13.815 11.923 14.256 11.923 14.7981V19.5051C11.923 19.8288 12.1853 20.0911 12.509 20.0911H15.7008C16.8891 20.0911 17.8558 19.1244 17.8558 17.9364V11.9325H18.1573C18.6489 11.9325 19.1113 11.741 19.4593 11.3931C20.1765 10.6755 20.1768 9.50818 19.4603 8.7901Z" fill="#8D8D8D"/>
</svg>
