<svg width="15" height="20" viewBox="0 0 15 20" fill="none" xmlns="http://www.w3.org/2000/svg">
<path d="M4.81481 18.1132H9.18519C9 19.1698 8.11111 20 7 20C5.88889 20 5 19.1698 4.81481 18.1132ZM7 2.26415C7.62963 2.26415 8.11111 1.73585 8.11111 1.13208C8.11111 0.490566 7.62963 0 7 0C6.37037 0 5.88889 0.490566 5.88889 1.13208C5.88889 1.73585 6.37037 2.26415 7 2.26415ZM13.2963 15.4717V8.33962C13.2963 6.49057 12.3704 4.75472 10.8889 3.81132C8.59259 2.37736 6.07407 2.22641 3.96296 3.43396C1.96296 4.56604 0.74074 6.71698 0.74074 9.0566V15.4717H0V17.3585H14.0741V15.4717H13.2963Z" fill="#8D8D8D"/>
</svg>
