<svg width="38" height="38" viewBox="0 0 38 38" fill="none" xmlns="http://www.w3.org/2000/svg">
<circle cx="19" cy="19" r="19" fill="#983701" fill-opacity="0.15"/>
<g clip-path="url(#clip0_785_1640)">
<path d="M13.2803 16.5303C12.4618 16.5303 11.7959 17.182 11.7959 17.9831V19.0727C11.7959 19.8737 12.4618 20.5255 13.2803 20.5255H14.3936C15.212 20.5255 15.8779 19.8737 15.8779 19.0727V17.9831C15.8779 17.182 15.212 16.5303 14.3936 16.5303H13.2803ZM14.3936 19.0727H13.2803V17.9831H14.3936L14.3944 19.0727C14.3944 19.0727 14.3943 19.0727 14.3936 19.0727ZM22.7803 24.2301H23.8936C24.712 24.2301 25.3779 23.5783 25.3779 22.7773V21.6877C25.3779 20.8867 24.712 20.2349 23.8936 20.2349H22.7803C21.9618 20.2349 21.2959 20.8867 21.2959 21.6877V22.7773C21.2959 23.5783 21.9618 24.2301 22.7803 24.2301ZM22.7803 21.6877H23.8936L23.8944 22.7773C23.8944 22.7773 23.8941 22.7773 23.8936 22.7773H22.7803V21.6877ZM26.6025 21.7603V14.0605C26.6025 13.2595 25.9366 12.6077 25.1182 12.6077H24.1533V13.3341C24.1533 13.7354 23.8211 14.0605 23.4111 14.0605C23.0012 14.0605 22.6689 13.7354 22.6689 13.3341V12.6077H19.292V13.3341C19.292 13.7354 18.9597 14.0605 18.5498 14.0605C18.1399 14.0605 17.8076 13.7354 17.8076 13.3341V12.6077H14.4678V13.3341C14.4678 13.7354 14.1355 14.0605 13.7256 14.0605C13.3156 14.0605 12.9834 13.7354 12.9834 13.3341V12.6077H12.0557C11.2372 12.6077 10.5713 13.2595 10.5713 14.0605V25.3923C10.5713 26.1933 11.2372 26.8451 12.0557 26.8451H25.1182C25.9366 26.8451 26.6025 26.1933 26.6025 25.3923C26.6025 24.9911 26.9348 24.6659 27.3447 24.6659C27.7547 24.6659 28.0869 24.9911 28.0869 25.3923C28.0869 26.9945 26.7552 28.2979 25.1182 28.2979H12.0557C10.4186 28.2979 9.08691 26.9945 9.08691 25.3923V14.0605C9.08691 12.4583 10.4186 11.1549 12.0557 11.1549H12.9834V10.4285C12.9834 10.0273 13.3156 9.70215 13.7256 9.70215C14.1355 9.70215 14.4678 10.0273 14.4678 10.4285V11.1549H17.8076V10.4285C17.8076 10.0273 18.1399 9.70215 18.5498 9.70215C18.9597 9.70215 19.292 10.0273 19.292 10.4285V11.1549H22.6689V10.4285C22.6689 10.0273 23.0012 9.70215 23.4111 9.70215C23.8211 9.70215 24.1533 10.0273 24.1533 10.4285V11.1549H25.1182C26.7552 11.1549 28.0869 12.4583 28.0869 14.0605V21.7603C28.0869 22.1615 27.7547 22.4867 27.3447 22.4867C26.9348 22.4867 26.6025 22.1615 26.6025 21.7603ZM18.5869 18.4189C18.5869 18.8201 18.2547 19.1453 17.8447 19.1453C17.4348 19.1453 17.1025 18.8201 17.1025 18.4189C17.1025 18.0177 17.4348 17.6925 17.8447 17.6925C18.2547 17.6925 18.5869 18.0177 18.5869 18.4189ZM21.3701 18.4189C21.3701 18.8201 21.0379 19.1453 20.6279 19.1453C20.218 19.1453 19.8857 18.8201 19.8857 18.4189C19.8857 18.0177 20.218 17.6925 20.6279 17.6925C21.0379 17.6925 21.3701 18.0177 21.3701 18.4189ZM22.6689 18.4189C22.6689 18.0177 23.0012 17.6925 23.4111 17.6925C23.8211 17.6925 24.1533 18.0177 24.1533 18.4189C24.1533 18.8201 23.8211 19.1453 23.4111 19.1453C23.0012 19.1453 22.6689 18.8201 22.6689 18.4189Z" fill="#BD4300"/>
</g>
<defs>
<clipPath id="clip0_785_1640">
<rect width="19" height="18.5957" fill="white" transform="translate(9.08691 9.70215)"/>
</clipPath>
</defs>
</svg>
