<svg width="15" height="15" viewBox="0 0 15 15" fill="none" xmlns="http://www.w3.org/2000/svg">
<path d="M14.666 6.22852L12.9111 5.79785C12.8145 5.49023 12.6914 5.19141 12.542 4.90137L13.4385 3.40723C13.5439 3.23145 13.5176 3.01172 13.377 2.87109L12.1289 1.62305C11.9883 1.48242 11.7686 1.45605 11.5928 1.56152L10.0986 2.45801C9.80859 2.30859 9.50977 2.18555 9.20215 2.08887L8.78027 0.333984C8.72754 0.140625 8.55176 0 8.34961 0H6.5918C6.38965 0 6.21387 0.140625 6.16113 0.333984L5.73926 2.08887C5.43164 2.18555 5.13281 2.30859 4.84277 2.45801L3.34863 1.56152C3.17285 1.45605 2.95312 1.48242 2.8125 1.62305L1.56445 2.87109C1.42383 3.01172 1.39746 3.23145 1.50293 3.40723L2.39941 4.90137C2.25 5.19141 2.12695 5.49023 2.03027 5.79785L0.333984 6.22852C0.140625 6.27246 0 6.44824 0 6.65039V8.4082C0 8.61035 0.140625 8.78613 0.333984 8.83008L2.03027 9.26074C2.12695 9.56836 2.25 9.86719 2.39941 10.1572L1.50293 11.6514C1.39746 11.8271 1.42383 12.0469 1.56445 12.1875L2.8125 13.4355C2.95312 13.5762 3.17285 13.6025 3.34863 13.4971L4.84277 12.6006C5.13281 12.75 5.43164 12.873 5.73926 12.9697L6.16113 14.666C6.21387 14.8594 6.38965 15 6.5918 15H8.34961C8.55176 15 8.72754 14.8594 8.78027 14.666L9.20215 12.9697C9.50977 12.873 9.80859 12.75 10.0986 12.6006L11.5928 13.4971C11.7686 13.6025 11.9883 13.5762 12.1289 13.4355L13.377 12.1875C13.5176 12.0469 13.5439 11.8271 13.4385 11.6514L12.542 10.1572C12.6914 9.86719 12.8145 9.56836 12.9111 9.26074L14.666 8.83008C14.8594 8.78613 15 8.61035 15 8.4082V6.65039C15 6.44824 14.8594 6.27246 14.666 6.22852ZM7.4707 9.72656C6.25781 9.72656 5.27344 8.74219 5.27344 7.5293C5.27344 6.31641 6.25781 5.33203 7.4707 5.33203C8.68359 5.33203 9.66797 6.31641 9.66797 7.5293C9.66797 8.74219 8.68359 9.72656 7.4707 9.72656Z" fill="#8D8D8D"/>
</svg>
